<svg width="6" height="12" viewBox="0 0 6 12" fill="none" xmlns="http://www.w3.org/2000/svg">
<path d="M5.85403 6.74465L0.854028 11.7446C0.807573 11.7911 0.752423 11.828 0.691726 11.8531C0.63103 11.8782 0.565975 11.8912 0.500278 11.8912C0.434581 11.8912 0.369526 11.8782 0.30883 11.8531C0.248133 11.828 0.192983 11.7911 0.146528 11.7446C0.100073 11.6982 0.0632225 11.643 0.0380812 11.5823C0.0129398 11.5217 0 11.4566 0 11.3909C0 11.3252 0.0129398 11.2601 0.0380812 11.1995C0.0632225 11.1388 0.100073 11.0836 0.146528 11.0371L4.7934 6.3909L0.146528 1.74465C0.0527074 1.65083 -9.88558e-10 1.52358 0 1.3909C9.88559e-10 1.25822 0.0527074 1.13097 0.146528 1.03715C0.240348 0.943333 0.367596 0.890625 0.500278 0.890625C0.63296 0.890625 0.760208 0.943333 0.854028 1.03715L5.85403 6.03715C5.90052 6.08359 5.9374 6.13873 5.96256 6.19943C5.98772 6.26013 6.00067 6.32519 6.00067 6.3909C6.00067 6.45661 5.98772 6.52167 5.96256 6.58237C5.9374 6.64307 5.90052 6.69822 5.85403 6.74465Z" fill="white"/>
</svg>
