<svg width="25" height="24" viewBox="0 0 25 24" fill="none" xmlns="http://www.w3.org/2000/svg">
<path d="M15.5 14L14.76 14.123C14.7421 14.0156 14.7479 13.9055 14.7769 13.8005C14.8058 13.6955 14.8573 13.5981 14.9277 13.515C14.9982 13.432 15.0858 13.3652 15.1847 13.3194C15.2835 13.2737 15.3911 13.25 15.5 13.25V14ZM4.5 14V14.75C4.30109 14.75 4.11032 14.671 3.96967 14.5303C3.82902 14.3897 3.75 14.1989 3.75 14H4.5ZM6.5 3.25H17.86V4.75H6.5V3.25ZM19.06 14.75H15.5V13.25H19.06V14.75ZM16.24 13.877L17.046 18.712L15.566 18.959L14.76 14.123L16.24 13.877ZM15.32 20.75H15.106V19.25H15.319L15.32 20.75ZM11.985 19.08L9.47 15.307L10.718 14.475L13.233 18.248L11.985 19.08ZM8.43 14.75H4.5V13.25H8.43V14.75ZM3.75 14V6H5.25V14H3.75ZM20.557 5.46L21.757 11.46L20.287 11.755L19.087 5.755L20.557 5.46ZM9.47 15.307C9.3559 15.1357 9.20127 14.9963 9.01985 14.8991C8.83842 14.8019 8.63581 14.7511 8.43 14.751V13.251C9.35 13.251 10.208 13.71 10.718 14.475L9.47 15.307ZM17.046 18.712C17.0878 18.9627 17.0745 19.2205 17.0071 19.4656C16.9396 19.7106 16.8196 19.938 16.6553 20.132C16.491 20.3259 16.2865 20.4818 16.0559 20.5887C15.8253 20.6956 15.5742 20.75 15.32 20.75V19.251C15.3562 19.2509 15.392 19.2429 15.4249 19.2276C15.4578 19.2123 15.4869 19.1901 15.5103 19.1624C15.5337 19.1347 15.5508 19.1023 15.5604 19.0673C15.57 19.0324 15.5719 18.9948 15.566 18.959L17.046 18.712ZM19.06 13.251C19.2449 13.251 19.4276 13.21 19.5948 13.1309C19.762 13.0519 19.9095 12.9366 20.0268 12.7936C20.1441 12.6506 20.2282 12.4834 20.273 12.3039C20.3178 12.1245 20.3222 11.9374 20.286 11.756L21.757 11.461C21.8367 11.86 21.827 12.2727 21.7284 12.6674C21.6298 13.0622 21.4448 13.4301 21.1868 13.7447C20.9288 14.0593 20.6042 14.3128 20.2365 14.4868C19.8687 14.6608 19.4669 14.7511 19.06 14.751V13.251ZM17.86 3.25C18.4957 3.24988 19.1118 3.471 19.6035 3.87392C20.0952 4.27684 20.4322 4.83667 20.557 5.46L19.087 5.755C19.0305 5.47122 18.8773 5.21682 18.6536 5.03336C18.4298 4.84991 18.1494 4.74976 17.86 4.75V3.25ZM15.106 20.75C14.4887 20.75 13.8809 20.5985 13.3366 20.3072C12.7923 20.0159 12.3284 19.5947 11.986 19.081L13.233 18.249C13.4385 18.5573 13.7171 18.8101 14.0438 18.9849C14.3706 19.1597 14.7354 19.2501 15.106 19.25V20.75ZM6.5 4.75C5.81 4.75 5.25 5.31 5.25 6H3.75C3.75 5.27065 4.03973 4.57118 4.55546 4.05546C5.07118 3.53973 5.77065 3.25 6.5 3.25V4.75Z" fill="#72777A"/>
<path d="M8.5 14V4" stroke="#72777A" stroke-width="1.5"/>
</svg>
