<svg width="19" height="18" viewBox="0 0 19 18" fill="none" xmlns="http://www.w3.org/2000/svg">
<path d="M14.0562 1.1655L17.186 4.428V16.8345H5.49443V16.875H17.2259V4.46906L14.0562 1.1655Z" fill="#909090"/>
<path d="M14.0174 1.125H5.4545V16.8345H17.186V4.42856L14.0174 1.125Z" fill="#F4F4F4"/>
<path d="M5.36844 1.96875H1.77406V5.80894H13.0803V1.96875H5.36844Z" fill="#7A7B7C"/>
<path d="M13.1405 5.7437H1.84718V1.9007H13.1405V5.7437Z" fill="#DD2025"/>
<path d="M5.59175 2.55038H4.85657V5.25038H5.43482V4.33969L5.5625 4.347C5.68662 4.34529 5.80959 4.32305 5.92644 4.28119C6.02917 4.24631 6.12358 4.19058 6.20376 4.1175C6.28597 4.04856 6.35057 3.96102 6.39219 3.86213C6.44914 3.69828 6.46931 3.5239 6.45125 3.35138C6.44805 3.22811 6.42643 3.10601 6.38713 2.98913C6.35171 2.90464 6.29904 2.82849 6.2325 2.76553C6.16596 2.70257 6.087 2.65419 6.00069 2.6235C5.92628 2.59594 5.84917 2.57633 5.77063 2.565C5.7113 2.55534 5.6513 2.55045 5.59119 2.55038M5.48488 3.84075H5.43482V3.00825H5.54338C5.59129 3.0048 5.63937 3.01215 5.68406 3.02977C5.72875 3.0474 5.76891 3.07483 5.80157 3.11006C5.86925 3.20063 5.9054 3.31088 5.9045 3.42394C5.9045 3.56231 5.9045 3.68775 5.77963 3.77606C5.68969 3.8256 5.58727 3.84845 5.48488 3.84075ZM7.54982 2.54306C7.48738 2.54306 7.42663 2.54756 7.38388 2.54925L7.25001 2.55263H6.81126V5.25263H7.32763C7.52495 5.2577 7.72136 5.22426 7.90588 5.15419C8.05445 5.09552 8.18595 5.00056 8.28838 4.878C8.38876 4.7549 8.46043 4.61097 8.49819 4.45669C8.54256 4.28227 8.56411 4.10284 8.56232 3.92288C8.57333 3.71034 8.55688 3.49727 8.51338 3.28894C8.47174 3.13576 8.39466 2.99453 8.28838 2.87663C8.20502 2.78129 8.10247 2.70462 7.98744 2.65163C7.88891 2.60595 7.78522 2.57233 7.67863 2.5515C7.63624 2.54455 7.59333 2.54135 7.55038 2.54194M7.44801 4.7565H7.39175V3.033H7.39907C7.51503 3.01959 7.63239 3.04052 7.73657 3.09319C7.81288 3.15412 7.87506 3.23089 7.91882 3.31819C7.96604 3.41006 7.99327 3.5109 7.99869 3.61406C8.00376 3.73781 7.99869 3.83906 7.99869 3.92288C8.00077 4.01942 7.99456 4.11596 7.98013 4.21144C7.96243 4.30935 7.9304 4.40412 7.88507 4.49269C7.83385 4.57529 7.7639 4.64466 7.68088 4.69519C7.61153 4.74019 7.52931 4.76114 7.44688 4.75481M10.3044 2.55263H8.9375V5.25263H9.51575V4.18163H10.247V3.67988H9.51575V3.05438H10.3033V2.55263" fill="#464648"/>
<path d="M12.7518 11.3934C12.7518 11.3934 14.5451 11.0683 14.5451 11.6809C14.5451 12.2934 13.4341 12.0443 12.7518 11.3934ZM11.426 11.4401C11.141 11.5029 10.8634 11.5951 10.5974 11.7152L10.8224 11.2089C11.0474 10.7027 11.2809 10.0125 11.2809 10.0125C11.5487 10.4648 11.8611 10.8892 12.2135 11.2793C11.9482 11.3188 11.6853 11.3729 11.426 11.4413V11.4401ZM10.7161 7.78388C10.7161 7.25007 10.8888 7.10438 11.0232 7.10438C11.1577 7.10438 11.309 7.16907 11.3141 7.63257C11.2702 8.09862 11.1726 8.55805 11.0232 9.00169C10.8179 8.62947 10.712 8.21064 10.7156 7.78557L10.7161 7.78388ZM8.10106 13.6991C7.55093 13.3701 9.25474 12.357 9.56356 12.3244C9.56187 12.3249 8.67706 14.0434 8.10106 13.6991ZM15.0687 11.7534C15.0631 11.6972 15.0125 11.0745 13.9044 11.1009C13.4425 11.0928 12.9808 11.1254 12.5246 11.1983C12.0824 10.7532 11.7017 10.2509 11.3928 9.70482C11.5873 9.14192 11.7052 8.55541 11.7432 7.96107C11.7269 7.28607 11.5655 6.89907 11.048 6.90469C10.5305 6.91032 10.4551 7.36313 10.5232 8.03701C10.5898 8.48986 10.7156 8.93201 10.8972 9.35213C10.8972 9.35213 10.6582 10.0963 10.3421 10.8366C10.0259 11.5768 9.80993 11.9649 9.80993 11.9649C9.26013 12.1437 8.74261 12.4096 8.27712 12.7524C7.81362 13.1839 7.62518 13.5152 7.86931 13.8465C8.07968 14.1323 8.81599 14.1969 9.47412 13.3346C9.8232 12.8888 10.1426 12.4206 10.4304 11.9329C10.4304 11.9329 11.4339 11.6578 11.7461 11.5824C12.0582 11.5071 12.4357 11.4474 12.4357 11.4474C12.4357 11.4474 13.352 12.3694 14.2357 12.3368C15.1194 12.3041 15.0766 11.8086 15.071 11.7546" fill="#DD2025"/>
<path d="M13.9741 1.1683V4.47187H17.1427L13.9741 1.1683Z" fill="#909090"/>
<path d="M14.0174 1.125V4.42856H17.186L14.0174 1.125Z" fill="#F4F4F4"/>
<path d="M5.54844 2.50707H4.81325V5.20707H5.39375V4.29695L5.522 4.30426C5.64611 4.30255 5.76908 4.28031 5.88593 4.23845C5.98866 4.20357 6.08307 4.14784 6.16325 4.07476C6.24485 4.00563 6.30886 3.9181 6.35 3.81938C6.40695 3.65554 6.42711 3.48116 6.40906 3.30863C6.40585 3.18536 6.38424 3.06326 6.34493 2.94638C6.30952 2.8619 6.25685 2.78574 6.19031 2.72278C6.12376 2.65983 6.04481 2.61145 5.9585 2.58076C5.88375 2.55293 5.80625 2.53313 5.72731 2.5217C5.66798 2.51204 5.60798 2.50714 5.54787 2.50707M5.44156 3.79745H5.3915V2.96495H5.50062C5.54854 2.96149 5.59661 2.96885 5.6413 2.98647C5.68599 3.00409 5.72615 3.03153 5.75881 3.06676C5.82649 3.15733 5.86264 3.26757 5.86175 3.38063C5.86175 3.51901 5.86175 3.64445 5.73687 3.73276C5.64693 3.7823 5.54451 3.80458 5.44212 3.79688M7.5065 2.49976C7.44406 2.49976 7.38331 2.50426 7.34056 2.50595L7.20837 2.50932H6.76962V5.20932H7.286C7.48331 5.2144 7.67973 5.18096 7.86425 5.11088C8.01281 5.05221 8.14432 4.95726 8.24675 4.8347C8.34712 4.71159 8.4188 4.56767 8.45656 4.41338C8.50093 4.23897 8.52248 4.05953 8.52068 3.87957C8.5317 3.66703 8.51525 3.45396 8.47175 3.24563C8.4301 3.09246 8.35303 2.95122 8.24675 2.83332C8.16338 2.73798 8.06084 2.66131 7.94581 2.60832C7.84728 2.56265 7.74359 2.52903 7.637 2.5082C7.59461 2.50125 7.5517 2.49805 7.50875 2.49863M7.40637 4.7132H7.35012V2.9897H7.35743C7.4734 2.97629 7.59075 2.99721 7.69494 3.04988C7.77125 3.11082 7.83343 3.18758 7.87718 3.27488C7.92441 3.36676 7.95163 3.4676 7.95706 3.57076C7.96212 3.69451 7.95706 3.79576 7.95706 3.87957C7.95914 3.97611 7.95293 4.07265 7.9385 4.16813C7.9208 4.26605 7.88877 4.36081 7.84344 4.44938C7.79222 4.53198 7.72227 4.60136 7.63925 4.65188C7.5699 4.69689 7.48768 4.71784 7.40525 4.71151M10.2611 2.50932H8.89419V5.20932H9.47243V4.13832H10.2037V3.63657H9.47243V3.01107H10.2599V2.50932" fill="white"/>
</svg>
