<svg width="48" height="48" viewBox="0 0 48 48" fill="none" xmlns="http://www.w3.org/2000/svg">
<path d="M24 44C35.046 44 44 35.046 44 24C44 12.954 35.046 4 24 4C12.954 4 4 12.954 4 24C4 35.046 12.954 44 24 44Z" stroke="#0000FF" stroke-width="1.5" stroke-linecap="round" stroke-linejoin="round"/>
<path d="M24.016 21.016C23.2203 21.016 22.4573 21.3321 21.8947 21.8947C21.3321 22.4573 21.016 23.2204 21.016 24.016C21.016 24.8117 21.3321 25.5747 21.8947 26.1373C22.4573 26.6999 23.2203 27.016 24.016 27.016C24.8116 27.016 25.5747 26.6999 26.1373 26.1373C26.6999 25.5747 27.016 24.8117 27.016 24.016C27.016 23.2204 26.6999 22.4573 26.1373 21.8947C25.5747 21.3321 24.8116 21.016 24.016 21.016ZM24.016 21.016V14M30.03 30.04L26.132 26.144" stroke="#0000FF" stroke-width="1.5" stroke-linecap="round" stroke-linejoin="round"/>
</svg>
