<svg width="25" height="24" viewBox="0 0 25 24" fill="none" xmlns="http://www.w3.org/2000/svg">
<path d="M15.5 10L14.76 9.87702C14.7421 9.98446 14.7479 10.0945 14.7769 10.1995C14.8058 10.3045 14.8573 10.4019 14.9277 10.485C14.9982 10.5681 15.0858 10.6348 15.1847 10.6806C15.2835 10.7263 15.3911 10.75 15.5 10.75V10ZM4.5 10V9.25002C4.30109 9.25002 4.11032 9.32904 3.96967 9.46969C3.82902 9.61035 3.75 9.80111 3.75 10H4.5ZM6.5 20.75H17.86V19.25H6.5V20.75ZM19.06 9.25002H15.5V10.75H19.06V9.25002ZM16.24 10.123L17.046 5.28802L15.566 5.04102L14.76 9.87702L16.24 10.123ZM15.32 3.25002H15.106V4.75002H15.319L15.32 3.25002ZM11.985 4.92002L9.47 8.69302L10.718 9.52502L13.233 5.75202L11.985 4.92002ZM8.43 9.25002H4.5V10.75H8.43V9.25002ZM3.75 10V18H5.25V10H3.75ZM20.557 18.54L21.757 12.54L20.287 12.245L19.087 18.245L20.557 18.54ZM9.47 8.69302C9.3559 8.86431 9.20127 9.00377 9.01985 9.10094C8.83842 9.1981 8.63581 9.24897 8.43 9.24902V10.749C9.35 10.749 10.208 10.29 10.718 9.52502L9.47 8.69302ZM17.046 5.28802C17.0877 5.03739 17.0743 4.77969 17.0067 4.53477C16.9392 4.28984 16.8191 4.06256 16.6549 3.86871C16.4906 3.67487 16.2861 3.51912 16.0556 3.41228C15.8251 3.30543 15.5741 3.25007 15.32 3.25002L15.319 4.75002C15.3552 4.75011 15.392 4.75808 15.4249 4.77338C15.4578 4.78868 15.4869 4.81094 15.5103 4.83863C15.5337 4.86631 15.5508 4.89875 15.5604 4.9337C15.57 4.96864 15.5719 5.00527 15.566 5.04102L17.046 5.28802ZM19.06 10.749C19.85 10.749 20.44 11.471 20.286 12.244L21.757 12.539C21.8366 12.1401 21.8267 11.7275 21.728 11.3329C21.6293 10.9383 21.4443 10.5705 21.1864 10.256C20.9284 9.94148 20.6039 9.68812 20.2362 9.51417C19.8685 9.34022 19.4668 9.25 19.06 9.25002V10.749ZM17.86 20.75C18.4957 20.7501 19.1118 20.529 19.6035 20.1261C20.0952 19.7232 20.4322 19.1624 20.557 18.539L19.087 18.244C19.0303 18.5276 18.877 18.7828 18.6533 18.966C18.4296 19.1493 18.1492 19.2503 17.86 19.25V20.75ZM15.106 3.25002C14.4887 3.25007 13.8809 3.40152 13.3366 3.69284C12.7923 3.98417 12.3284 4.40536 11.986 4.91902L13.233 5.75202C13.4385 5.44368 13.7171 5.18988 14.0438 5.01508C14.3706 4.84028 14.7354 4.74989 15.106 4.75002V3.25002ZM6.5 19.25C5.81 19.25 5.25 18.69 5.25 18H3.75C3.75 18.7294 4.03973 19.4288 4.55546 19.9446C5.07118 20.4603 5.77065 20.75 6.5 20.75V19.25Z" fill="#72777A"/>
<path d="M8.5 10V20" stroke="#72777A" stroke-width="1.5"/>
</svg>
