<svg width="25" height="24" viewBox="0 0 25 24" fill="none" xmlns="http://www.w3.org/2000/svg">
<path d="M12.5 15.6C13.4548 15.6 14.3705 15.2207 15.0456 14.5456C15.7207 13.8705 16.1 12.9548 16.1 12V6.00002C16.1 5.04525 15.7207 4.12957 15.0456 3.45444C14.3705 2.77931 13.4548 2.40002 12.5 2.40002C11.5452 2.40002 10.6296 2.77931 9.95444 3.45444C9.27931 4.12957 8.90002 5.04525 8.90002 6.00002V12C8.90002 12.9548 9.27931 13.8705 9.95444 14.5456C10.6296 15.2207 11.5452 15.6 12.5 15.6ZM12.5 14.4C11.8635 14.4 11.2531 14.1472 10.803 13.6971C10.3529 13.247 10.1 12.6365 10.1 12V6.00002C10.1 5.3635 10.3529 4.75306 10.803 4.30297C11.2531 3.85288 11.8635 3.60002 12.5 3.60002C13.1365 3.60002 13.747 3.85288 14.1971 4.30297C14.6472 4.75306 14.9 5.3635 14.9 6.00002V12C14.9 12.6365 14.6472 13.247 14.1971 13.6971C13.747 14.1472 13.1365 14.4 12.5 14.4ZM6.50002 11.4C6.65915 11.4 6.81177 11.4632 6.92429 11.5758C7.03681 11.6883 7.10002 11.8409 7.10002 12C7.10002 12.7092 7.2397 13.4114 7.51108 14.0665C7.78245 14.7217 8.18021 15.317 8.68165 15.8184C9.18308 16.3198 9.77838 16.7176 10.4335 16.989C11.0887 17.2604 11.7909 17.4 12.5 17.4C13.2092 17.4 13.9114 17.2604 14.5665 16.989C15.2217 16.7176 15.817 16.3198 16.3184 15.8184C16.8198 15.317 17.2176 14.7217 17.489 14.0665C17.7604 13.4114 17.9 12.7092 17.9 12C17.9 11.8409 17.9632 11.6883 18.0758 11.5758C18.1883 11.4632 18.3409 11.4 18.5 11.4C18.6592 11.4 18.8118 11.4632 18.9243 11.5758C19.0368 11.6883 19.1 11.8409 19.1 12C19.1003 13.6467 18.4849 15.2341 17.3748 16.4503C16.2646 17.6666 14.7399 18.4239 13.1 18.5736V21C13.1 21.1592 13.0368 21.3118 12.9243 21.4243C12.8118 21.5368 12.6592 21.6 12.5 21.6C12.3409 21.6 12.1883 21.5368 12.0758 21.4243C11.9632 21.3118 11.9 21.1592 11.9 21V18.5736C10.2601 18.4239 8.73542 17.6666 7.62529 16.4503C6.51516 15.2341 5.89979 13.6467 5.90002 12C5.90002 11.8409 5.96324 11.6883 6.07576 11.5758C6.18828 11.4632 6.34089 11.4 6.50002 11.4Z" fill="#ACADB9"/>
</svg>
