<svg width="25" height="24" viewBox="0 0 25 24" fill="none" xmlns="http://www.w3.org/2000/svg">
<path fill-rule="evenodd" clip-rule="evenodd" d="M10.0085 5.09012C12.3626 2.83666 16.1691 2.83666 18.5233 5.09012C20.8922 7.35774 20.8922 11.0456 18.5233 13.3132L12.1648 19.3996C10.4928 21.0002 7.79225 21.0002 6.1202 19.3996C4.43335 17.785 4.43335 15.1557 6.1202 13.541L12.3872 7.5422C13.3771 6.59462 14.9717 6.59462 15.9616 7.5422C16.9663 8.50394 16.9663 10.0746 15.9616 11.0363L9.64889 17.0789C9.40951 17.3081 9.0297 17.2998 8.80057 17.0604C8.57143 16.821 8.57973 16.4412 8.81911 16.212L15.1318 10.1694C15.6429 9.68019 15.6429 8.8983 15.1318 8.40907C14.6059 7.90566 13.7428 7.90566 13.2169 8.40906L6.94998 14.4079C5.75676 15.5501 5.75676 17.3906 6.94998 18.5328C8.15801 19.6891 10.127 19.6891 11.335 18.5328L17.6935 12.4464C19.5688 10.6512 19.5688 7.7521 17.6935 5.95699C15.8033 4.1477 12.7284 4.1477 10.8382 5.95699L5.71489 10.8611C5.47551 11.0903 5.0957 11.082 4.86656 10.8426C4.63743 10.6032 4.64573 10.2234 4.88511 9.99428L10.0085 5.09012Z" fill="#ACADB9"/>
</svg>
