<svg width="25" height="24" viewBox="0 0 25 24" fill="none" xmlns="http://www.w3.org/2000/svg">
<path d="M16.7727 11.193L15.7257 10.8172C14.7717 10.473 14.0262 9.72822 13.6827 8.77347L13.3062 7.72647C13.3054 7.72572 13.3054 7.72497 13.3047 7.72347C13.1824 7.38747 12.8592 7.16022 12.4999 7.16022C12.1407 7.16022 11.8174 7.38747 11.6929 7.72722L11.3172 8.77422C10.9729 9.72822 10.2282 10.4737 9.27341 10.8172L8.22416 11.1952C7.88741 11.3175 7.66016 11.6415 7.66016 12C7.66016 12.3585 7.88741 12.6825 8.22716 12.807L9.27416 13.1827C10.2282 13.527 10.9737 14.2717 11.3172 15.2265L11.6952 16.2757C11.8182 16.6125 12.1422 16.8397 12.5007 16.8397C12.8592 16.8397 13.1832 16.6125 13.3077 16.2727L13.6834 15.2257C14.0277 14.2717 14.7724 13.5262 15.7272 13.1827L16.7764 12.8047C17.1132 12.6817 17.3404 12.3577 17.3404 11.9992C17.3404 11.6407 17.1124 11.3175 16.7727 11.193ZM12.4999 14.1855C12.0267 13.2382 11.2624 12.474 10.3144 12C11.2617 11.5267 12.0259 10.7625 12.4999 9.81447C12.9732 10.7617 13.7374 11.526 14.6854 12C13.7382 12.4732 12.9739 13.2375 12.4999 14.1855Z" fill="#72777A"/>
<path d="M21.0507 6.84901C20.8362 6.49501 20.3757 6.38401 20.0202 6.59626C19.6662 6.81076 19.553 7.27201 19.7675 7.62676C20.564 8.94076 20.9847 10.4535 20.9847 12.0008C20.9847 16.6785 17.1785 20.4855 12.5 20.4855C11.6982 20.4855 10.9167 20.3685 10.1615 20.1518L10.9062 19.794C11.279 19.6148 11.4365 19.1663 11.2572 18.7928C11.0787 18.42 10.6287 18.2625 10.256 18.4418L7.91225 19.569C7.72475 19.6598 7.583 19.824 7.5215 20.0228C7.46 20.2215 7.484 20.4368 7.5875 20.6175L8.8835 22.8735C9.0215 23.115 9.27425 23.25 9.5345 23.25C9.66125 23.25 9.7895 23.2178 9.90725 23.1503C10.2665 22.944 10.391 22.485 10.184 22.1265L9.899 21.63C10.7412 21.858 11.6105 21.9848 12.5007 21.9848C18.0065 21.9848 22.4855 17.5058 22.4855 12C22.4847 10.179 21.989 8.39701 21.0507 6.84901Z" fill="#72777A"/>
<path d="M12.4992 3.51523C13.3009 3.51523 14.0832 3.63223 14.8377 3.84898L14.0929 4.20673C13.7202 4.38598 13.5627 4.83448 13.7419 5.20798C13.8709 5.47573 14.1387 5.63248 14.4184 5.63248C14.5279 5.63248 14.6382 5.60923 14.7432 5.55823L17.0869 4.43098C17.2744 4.34023 17.4162 4.17598 17.4777 3.97723C17.5392 3.77848 17.5159 3.56248 17.4117 3.38173L16.1157 1.12573C15.9102 0.766483 15.4519 0.642733 15.0919 0.848983C14.7327 1.05523 14.6082 1.51423 14.8152 1.87273L15.1002 2.36923C14.2579 2.14123 13.3887 2.01448 12.4984 2.01448C6.99267 2.01448 2.51367 6.49348 2.51367 11.9992C2.51367 13.821 3.00942 15.603 3.94767 17.151C4.08867 17.3835 4.33692 17.5117 4.58967 17.5117C4.72242 17.5117 4.85592 17.4765 4.97817 17.403C5.33217 17.1885 5.44542 16.7272 5.23092 16.3725C4.43442 15.0585 4.01367 13.5457 4.01367 11.9985C4.01517 7.32148 7.82142 3.51523 12.4992 3.51523Z" fill="#72777A"/>
</svg>
