<svg width="25" height="24" viewBox="0 0 25 24" fill="none" xmlns="http://www.w3.org/2000/svg">
<path fill-rule="evenodd" clip-rule="evenodd" d="M10.3233 5.56202L15.7358 7.99716C17.3811 8.73739 18.676 9.31996 19.5544 9.87163C20.422 10.4165 21.1 11.0626 21.1 12C21.1 12.9375 20.422 13.5835 19.5544 14.1284C18.676 14.6801 17.3811 15.2627 15.7358 16.0029L10.3233 18.438C9.31769 18.8905 8.53538 19.2424 7.92452 19.4709C7.32677 19.6944 6.79254 19.8412 6.31751 19.7895C5.16534 19.6643 4.1739 18.8742 3.93395 17.7587C3.83225 17.286 3.97445 16.7571 4.17877 16.2077C4.39031 15.6389 4.72654 14.9085 5.15488 13.978L5.16643 13.9529C5.5012 13.2257 5.63003 12.9388 5.69577 12.6525C5.79466 12.2218 5.79466 11.7782 5.69577 11.3476C5.63003 11.0613 5.5012 10.7743 5.16643 10.0471L5.15488 10.022C4.72654 9.09154 4.39031 8.36117 4.17877 7.79232C3.97445 7.24293 3.83225 6.71407 3.93395 6.24131C4.1739 5.12588 5.16534 4.3358 6.31751 4.2105C6.79254 4.15885 7.32677 4.30565 7.92452 4.52917C8.53538 4.7576 9.31769 5.10957 10.3233 5.56202ZM7.50421 5.65316C6.91687 5.43353 6.61683 5.38503 6.44724 5.40347C5.73679 5.48073 5.22371 5.95165 5.10711 6.49368C5.08542 6.59454 5.10057 6.82834 5.30351 7.37405C5.49732 7.8952 5.81411 8.58437 6.25648 9.54532C6.26617 9.56637 6.27575 9.58717 6.28521 9.60773C6.58202 10.2523 6.76846 10.6571 6.86533 11.079C7.0048 11.6864 7.0048 12.3137 6.86533 12.921C6.76846 13.3429 6.58202 13.7478 6.28521 14.3923C6.27574 14.4129 6.26617 14.4337 6.25648 14.4547C5.81411 15.4157 5.49732 16.1048 5.30351 16.626C5.10057 17.1717 5.08542 17.4055 5.10711 17.5064C5.22371 18.0484 5.73679 18.5193 6.44724 18.5966C6.61683 18.615 6.91687 18.5665 7.50421 18.3469C8.07407 18.1338 8.82081 17.7982 9.85263 17.3339L15.1949 14.9304C16.8992 14.1636 18.1169 13.6142 18.9162 13.1122C19.7349 12.5981 19.9 12.264 19.9 12C19.9 11.736 19.7349 11.402 18.9162 10.8878C18.1169 10.3859 16.8992 9.83643 15.1949 9.06967L9.85263 6.66611C8.82082 6.20189 8.07407 5.86625 7.50421 5.65316Z" fill="#ACADB9"/>
</svg>
