<svg width="24" height="25" viewBox="0 0 24 25" fill="none" xmlns="http://www.w3.org/2000/svg">
<g clip-path="url(#clip0_4397_11870)">
<path d="M10.325 4.70763C10.751 2.95162 13.249 2.95162 13.675 4.70763C13.7389 4.97142 13.8642 5.2164 14.0407 5.42262C14.2172 5.62885 14.4399 5.79048 14.6907 5.89437C14.9414 5.99826 15.2132 6.04148 15.4838 6.02049C15.7544 5.99951 16.0162 5.91493 16.248 5.77362C17.791 4.83362 19.558 6.59962 18.618 8.14362C18.4769 8.37528 18.3924 8.63696 18.3715 8.9074C18.3506 9.17783 18.3938 9.44939 18.4975 9.7C18.6013 9.95061 18.7627 10.1732 18.9687 10.3497C19.1747 10.5262 19.4194 10.6515 19.683 10.7156C21.439 11.1416 21.439 13.6396 19.683 14.0656C19.4192 14.1295 19.1742 14.2548 18.968 14.4313C18.7618 14.6078 18.6001 14.8305 18.4963 15.0813C18.3924 15.332 18.3491 15.6038 18.3701 15.8744C18.3911 16.145 18.4757 16.4069 18.617 16.6386C19.557 18.1816 17.791 19.9486 16.247 19.0086C16.0153 18.8675 15.7537 18.7831 15.4832 18.7621C15.2128 18.7412 14.9412 18.7844 14.6906 18.8882C14.44 18.9919 14.2174 19.1534 14.0409 19.3594C13.8645 19.5653 13.7391 19.8101 13.675 20.0736C13.249 21.8296 10.751 21.8296 10.325 20.0736C10.2611 19.8098 10.1358 19.5648 9.95929 19.3586C9.7828 19.1524 9.56011 18.9908 9.30935 18.8869C9.05859 18.783 8.78683 18.7398 8.51621 18.7608C8.24559 18.7817 7.98375 18.8663 7.752 19.0076C6.209 19.9476 4.442 18.1816 5.382 16.6376C5.5231 16.406 5.60755 16.1443 5.62848 15.8739C5.64942 15.6034 5.60624 15.3319 5.50247 15.0812C5.3987 14.8306 5.23726 14.608 5.03127 14.4316C4.82529 14.2551 4.58056 14.1297 4.317 14.0656C2.561 13.6396 2.561 11.1416 4.317 10.7156C4.5808 10.6517 4.82578 10.5264 5.032 10.3499C5.23822 10.1734 5.39985 9.95074 5.50375 9.69997C5.60764 9.44921 5.65085 9.17746 5.62987 8.90684C5.60889 8.63622 5.5243 8.37438 5.383 8.14262C4.443 6.59962 6.209 4.83262 7.753 5.77262C8.753 6.38062 10.049 5.84263 10.325 4.70763Z" stroke="white" stroke-width="1.5" stroke-linecap="round" stroke-linejoin="round"/>
<path d="M9 12.3906C9 13.1863 9.31607 13.9493 9.87868 14.5119C10.4413 15.0746 11.2044 15.3906 12 15.3906C12.7956 15.3906 13.5587 15.0746 14.1213 14.5119C14.6839 13.9493 15 13.1863 15 12.3906C15 11.595 14.6839 10.8319 14.1213 10.2693C13.5587 9.7067 12.7956 9.39062 12 9.39062C11.2044 9.39062 10.4413 9.7067 9.87868 10.2693C9.31607 10.8319 9 11.595 9 12.3906Z" stroke="white" stroke-width="1.5" stroke-linecap="round" stroke-linejoin="round"/>
</g>
<defs>
<clipPath id="clip0_4397_11870">
<rect width="24" height="24" fill="white" transform="translate(0 0.390625)"/>
</clipPath>
</defs>
</svg>
